<?xml version="1.0" encoding="UTF-8"?>
<svg width="125" height="40" clip-rule="evenodd" fill-rule="evenodd" stroke-linejoin="round" stroke-miterlimit="1.4142" version="1.1" viewBox="0 0 125 40" xml:space="preserve" xmlns="http://www.w3.org/2000/svg" xmlns:cc="http://creativecommons.org/ns#" xmlns:dc="http://purl.org/dc/elements/1.1/" xmlns:rdf="http://www.w3.org/1999/02/22-rdf-syntax-ns#"><metadata><rdf:RDF><cc:Work rdf:about=""><dc:format>image/svg+xml</dc:format><dc:type rdf:resource="http://purl.org/dc/dcmitype/StillImage"/><dc:title/></cc:Work></rdf:RDF></metadata>
    
<g fill="#d6ced2"><g transform="matrix(1.3138 0 0 1.3784 -1.8217 3.6207)"><path d="m0 0h24v24h-24z" fill="none"/><path d="m21 19v-14c0-1.1-0.9-2-2-2h-14c-1.1 0-2 0.9-2 2v14c0 1.1 0.9 2 2 2h14c1.1 0 2-0.9 2-2zm-12.1-5.02 2.1 2.53 3.1-3.99c0.2-0.26 0.6-0.26 0.8 0.01l3.51 4.68c0.25 0.33 0.01 0.8-0.4 0.8h-11.99c-0.42 0-0.65-0.48-0.39-0.81l2.49-3.2c0.19-0.26 0.57-0.27 0.78-0.02z"/></g><g transform="matrix(1.4115 0 0 1.4115 27.778 3.2243)"><path d="m21 3h-18c-1.1 0-2 0.9-2 2v12c0 1.1 0.9 2 2 2h5v1c0 0.55 0.45 1 1 1h6c0.55 0 1-0.45 1-1v-1h5c1.1 0 1.99-0.9 1.99-2l0.01-12c0-1.1-0.9-2-2-2zm-1 14h-16c-0.55 0-1-0.45-1-1v-10c0-0.55 0.45-1 1-1h16c0.55 0 1 0.45 1 1v10c0 0.55-0.45 1-1 1z"/></g><g transform="matrix(1.365 0 0 1.365 59.723 3.782)"><path d="m0 0h24v24h-24z" fill="none"/><path d="m12 2c-5.52 0-10 4.48-10 10s4.48 10 10 10 10-4.48 10-10-4.48-10-10-10zm-1 17.93c-3.95-0.49-7-3.85-7-7.93 0-0.62 0.08-1.21 0.21-1.79l4.79 4.79v1c0 1.1 0.9 2 2 2zm6.9-2.54c-0.26-0.81-1-1.39-1.9-1.39h-1v-3c0-0.55-0.45-1-1-1h-6v-2h2c0.55 0 1-0.45 1-1v-2h2c1.1 0 2-0.9 2-2v-0.41c2.93 1.19 5 4.06 5 7.41 0 2.08-0.8 3.97-2.1 5.39z"/></g><g transform="matrix(1.3248 0 0 1.3248 91.964 4.2639)"><path d="m0 0h24v24h-24z" fill="none"/><circle cx="12" cy="12" r="3"/><path d="m20 4h-3.17l-1.24-1.35c-0.37-0.41-0.91-0.65-1.47-0.65h-4.24c-0.56 0-1.1 0.24-1.48 0.65l-1.23 1.35h-3.17c-1.1 0-2 0.9-2 2v12c0 1.1 0.9 2 2 2h16c1.1 0 2-0.9 2-2v-12c0-1.1-0.9-2-2-2zm-8 13c-2.76 0-5-2.24-5-5s2.24-5 5-5 5 2.24 5 5-2.24 5-5 5z"/></g></g></svg>
